<svg xmlns="http://www.w3.org/2000/svg" xml:space="preserve" version="1.1" style="shape-rendering:geometricPrecision; text-rendering:geometricPrecision; image-rendering:optimizeQuality; fill-rule:evenodd; clip-rule:evenodd"
	viewBox="0 0 2500000 2500000"
	 xmlns:xlink="http://www.w3.org/1999/xlink">
	 <defs>
	  <style type="text/css">
	   <![CDATA[
		.kstr0 {stroke:#none;stroke-width:35250}
		.kfil0 {fill:#ffed00}
		.kfil1 {fill:#ffed00;fill-rule:nonzero}
		.kfil2 {fill:#14B0FD}
	   ]]>
	  </style>
	 </defs>
	 <g id="krb-logo">
	  <circle class="kfil2 kstr0" cx="1250000" cy="1250000" r="1214062" />
	  <path class="kfil1 kstr0" d="M1251219 1162750c18009,-3203 34019,-10006 48025,-20412 14009,-10407 27215,-28016 39622,-52029l275750 -538290c10803,-18010 24012,-32419 39218,-43625 15210,-10806 33219,-16410 53232,-16410l174893 0 -343384 633144c-15209,26016 -32419,47228 -51628,63635 -19613,16409 -41225,28815 -64838,37221 36822,9604 67638,25213 92854,47225 24812,21610 48425,52025 70437,91247l330578 668363 -192503 0c-38822,0 -70041,-21213 -93653,-63235l-270947 -566303c-14006,-25215 -29216,-43225 -45622,-54034 -16409,-10803 -37222,-17206 -62034,-18809l0 287359 -151281 0 0 -288559 -111263 0 0 703581 -213716 0 0 -1540835 213716 0 0 673166 111263 0 0 -332981 151281 0 0 330581z"/>
	 </g>
</svg>